<svg width="62" height="28" viewBox="0 0 62 28" fill="none" xmlns="http://www.w3.org/2000/svg">
<path d="M0 4C0 1.79086 1.79086 0 4 0H58C60.2091 0 62 1.79086 62 4V20C62 22.2091 60.2091 24 58 24H0V4Z" fill="url(#paint0_linear)"/>
<path d="M15.6348 16H14.1523L10.3496 9.94727V16H8.86719V7.46875H10.3496L14.1641 13.5449V7.46875H15.6348V16ZM24.1953 11.957C24.1953 12.793 24.0508 13.5273 23.7617 14.1602C23.4727 14.7891 23.0586 15.2734 22.5195 15.6133C21.9844 15.9492 21.3672 16.1172 20.668 16.1172C19.9766 16.1172 19.3594 15.9492 18.8164 15.6133C18.2773 15.2734 17.8594 14.791 17.5625 14.166C17.2695 13.541 17.1211 12.8203 17.1172 12.0039V11.5234C17.1172 10.6914 17.2637 9.95703 17.5566 9.32031C17.8535 8.68359 18.2695 8.19727 18.8047 7.86133C19.3438 7.52148 19.9609 7.35156 20.6562 7.35156C21.3516 7.35156 21.9668 7.51953 22.502 7.85547C23.041 8.1875 23.457 8.66797 23.75 9.29688C24.043 9.92188 24.1914 10.6504 24.1953 11.4824V11.957ZM22.7129 11.5117C22.7129 10.5664 22.5332 9.8418 22.1738 9.33789C21.8184 8.83398 21.3125 8.58203 20.6562 8.58203C20.0156 8.58203 19.5137 8.83398 19.1504 9.33789C18.791 9.83789 18.6074 10.5469 18.5996 11.4648V11.957C18.5996 12.8945 18.7812 13.6191 19.1445 14.1309C19.5117 14.6426 20.0195 14.8984 20.668 14.8984C21.3242 14.8984 21.8281 14.6484 22.1797 14.1484C22.5352 13.6484 22.7129 12.918 22.7129 11.957V11.5117ZM22.8359 7.03516H21.7051L20.6562 6.08594L19.6133 7.03516H18.4824L20.1113 5.57031H21.207L22.8359 7.03516ZM22.291 6.25L22.25 5.51758C22.4961 5.49805 22.6738 5.46484 22.7832 5.41797C22.8926 5.37109 22.9473 5.29102 22.9473 5.17773C22.9473 4.93555 22.6953 4.81445 22.1914 4.81445L22.2324 4.19922C22.7676 4.19922 23.1719 4.28711 23.4453 4.46289C23.7188 4.63477 23.8555 4.86719 23.8555 5.16016C23.8555 5.375 23.7832 5.54688 23.6387 5.67578C23.498 5.80078 23.3184 5.87695 23.0996 5.9043L23.0938 6.25H22.291ZM27.2363 16H25.7598V7.46875H27.2363V16ZM32.0469 16V7.46875H34.9707C35.9355 7.46875 36.6699 7.66211 37.1738 8.04883C37.6777 8.43555 37.9297 9.01172 37.9297 9.77734C37.9297 10.168 37.8242 10.5195 37.6133 10.832C37.4023 11.1445 37.0938 11.3867 36.6875 11.5586C37.1484 11.6836 37.5039 11.9199 37.7539 12.2676C38.0078 12.6113 38.1348 13.0254 38.1348 13.5098C38.1348 14.3105 37.877 14.9258 37.3613 15.3555C36.8496 15.7852 36.1152 16 35.1582 16H32.0469ZM33.5293 12.1504V14.8164H35.1758C35.6406 14.8164 36.0039 14.7012 36.2656 14.4707C36.5273 14.2402 36.6582 13.9199 36.6582 13.5098C36.6582 12.623 36.2051 12.1699 35.2988 12.1504H33.5293ZM33.5293 11.0605H34.9824C35.4434 11.0605 35.8027 10.957 36.0605 10.75C36.3223 10.5391 36.4531 10.2422 36.4531 9.85938C36.4531 9.4375 36.332 9.13281 36.0898 8.94531C35.8516 8.75781 35.4785 8.66406 34.9707 8.66406H33.5293V11.0605ZM44.3926 14.0137H41.0879L40.3965 16H38.8555L42.0781 7.46875H43.4082L46.6367 16H45.0898L44.3926 14.0137ZM41.5039 12.8184H43.9766L42.7402 9.2793L41.5039 12.8184ZM44.7852 6.80664V6.87109H43.6426L42.7637 5.95703L41.8906 6.87109H40.7598V6.79492L42.3477 5.17773H43.1855L44.7852 6.80664ZM41.9902 17.3945C41.9902 17.1875 42.0586 17.0137 42.1953 16.873C42.3359 16.7363 42.5352 16.668 42.793 16.668C43.0508 16.668 43.25 16.7363 43.3906 16.873C43.5312 17.0137 43.6016 17.1875 43.6016 17.3945C43.6016 17.6016 43.5312 17.7734 43.3906 17.9102C43.25 18.0469 43.0508 18.1152 42.793 18.1152C42.5352 18.1152 42.3359 18.0469 42.1953 17.9102C42.0586 17.7734 41.9902 17.6016 41.9902 17.3945ZM53.0703 8.66406H50.4102V16H48.9395V8.66406H46.3027V7.46875H53.0703V8.66406Z" fill="white"/>
<path d="M0 24H4V28C1.79086 28 0 26.2091 0 24Z" fill="#2c3e50"/>
<defs>
<linearGradient id="paint0_linear" x1="107.627" y1="49.4034" x2="106.083" y2="-2.24441" gradientUnits="userSpaceOnUse">
<stop stop-color="#3498db"/>
<stop offset="1" stop-color="#3498db"/>
</linearGradient>
</defs>
</svg>
